<?xml version="1.0" encoding="UTF-8"?>
<svg enable-background="new 0 0 550 400" viewBox="0 0 550 400" xmlns="http://www.w3.org/2000/svg">
 <path d="m428.998,115.149c6.769,5.067 10.968,11.983 12.602,20.75 .898,4.833 1,8.05.3,9.65-.698,1.699-2.85,3-6.448,3.899-9.201,2.333-17.052,3.601-23.552,3.8-2.198.066-3.8-.532-4.8-1.8-.898-1.2-1.634-3.5-2.2-6.899l-2.948-27.75c-.367-3-.084-5.134.85-6.4 .833-1.133 2.316-1.75 4.449-1.85 8.098-.4 15.348,1.801 21.747,6.6zm-24.75,57.951c-3.766,1-6.565,1.55-8.398,1.649-3.033.167-5.033-.55-6-2.149l14.3-3.5 1.5-.4c1.101-.2 1.75.317 1.95,1.55 .2,1.2-.283,1.968-1.45,2.301-.667.198-1.301.382-1.902.549zm55.901,6.899c4.7-2.633 8.617-1.667 11.75,2.9 3.367,4.9 4.95,12.933 4.75,24.101l-5.448-1.45c.1-2.968-.033-5.8-.4-8.5-1-7.333-3.584-11.533-7.75-12.601l-6.6-1.6c1.198-1.166 2.432-2.117 3.698-2.85zm-2.651,15c3-.767 5.385.384 7.15,3.45 1.967,3.334 2.667,8.217 2.1,14.65-.565,6.231-2.231,11.833-5,16.8-2.532,4.5-5.35,7.45-8.448,8.851-3.167,1.468-5.65.832-7.45-1.899-.634-.967-1.134-2.15-1.5-3.551-.768-3-.898-7-.398-12 .766-7.468 2.516-13.634 5.25-18.5 0-.066.016-.116.049-.149 2.431-4.335 5.181-6.884 8.247-7.652zm3.651,9.501c-.267-.934-.616-1.75-1.05-2.45-1.467-2.533-3.434-3.483-5.898-2.851-1.802.435-3.468,1.633-5,3.601 1.532-1.967 3.198-3.166 5-3.601 2.467-.633 4.433.317 5.898,2.851 .434.7.784,1.516 1.05,2.45zm-11.198,3.399c-2.067,3.634-3.385,8.267-3.951,13.899-.566,5.434-.101,9.268 1.399,11.5 .9,1.334 2.019,1.983 3.351,1.95 .668,0 1.399-.184 2.201-.551 2.266-1.065 4.35-3.25 6.25-6.55 2.032-3.7 3.282-7.851 3.75-12.45 .398-4.8-.135-8.434-1.602-10.899l-.2-.3c-1.267-2.032-2.967-2.782-5.1-2.25-2.266.535-4.301,2.418-6.098,5.651zm8.75,6.951c.666-.167 1.198.1 1.6.8 .434.733.583,1.817.449,3.25-.133,1.399-.5,2.649-1.101,3.75-.565,1-1.198,1.649-1.899,1.95-.699.333-1.25.199-1.649-.4-.433-.666-.567-1.815-.399-3.449 .166-1.7.549-3.101 1.149-4.2 .565-.969 1.182-1.535 1.85-1.701zm-136.552,64.5 103.5-43.851c1.9,4.899 4.185,8.55 6.851,10.949 2.834,2.601 6.399,4.051 10.701,4.351-3.567.634-6.451,1.25-8.65,1.851-3.133.833-5.95,1.833-8.45,3l-150.602,74.35c1.168-.967 2.301-1.983 3.4-3.051 1.066-1.033 2.101-2.117 3.101-3.25 1.268-1.467 2.467-2.981 3.601-4.55 4.767-6.733 8.2-14.634 10.3-23.7 1.934-8.434 2.2-17.065.801-25.899-1.533-9.399-4.601-16.166-9.201-20.3-5.365-4.834-11.016-8.051-16.948-9.649-3.7-1-7.117-1.5-10.25-1.5-2.967.033-5.867.517-8.7,1.449 3.067-2.767 6.133-4.851 9.2-6.25 5.066-2.3 9.55-3.482 13.45-3.55 4.333-.101 9.234,1.082 14.702,3.55 6.299,2.866 10.731,8.149 13.299,15.851 2.033,6.167 3.301,15.667 3.801,28.5 .033.899.133,1.717.3,2.45 .134.731.3,1.283.5,1.649 .767,1.699 2.033,2.649 3.8,2.851 2.927.298 6.761-1.452 11.494-5.251zm-203.25,11.699c10.1,4.801 21.383,8.983 33.85,12.551 16.5,4.767 31.417,7.517 44.75,8.25 1.133.065 1.967-.519 2.5-1.75 .533-1.167.817-3.051.85-5.65 0-1.267-.05-2.367-.15-3.3 3.133.233 6.2-.483 9.2-2.149 .1,5.399.8,10.232 2.1,14.5 1.6,5.033 4.15,9.649 7.65,13.851 4.9,5.867 10.917,9.717 18.05,11.55 4,1.033 8.15,1.384 12.45,1.05-14.566,2.367-22.3,3.617-23.2,3.75-8.167,1.066-15.917,1.467-23.25,1.2-20.867-.767-39.667-4.783-56.4-12.05-15.167-6.601-25.3-14.2-30.4-22.801-2.733-4.601-3.966-8.416-3.7-11.449 .3-3.135 2.2-5.653 5.7-7.553zm325.45-57.75c.102.134.184.268.25.399 1.5,2.233 3.55,2.75 6.148,1.551-2.6,1.199-4.648.684-6.148-1.551-.066-.132-.148-.265-.25-.399zm-48.75-114.999c1.268,10.032 2.05,19.85 2.352,29.449 .266,3.634.032,6.083-.701,7.351-.967,1.667-3.366,2.966-7.199,3.899-13.1,3.134-25.934,5.533-38.5,7.2-4.667.601-9.283,1.101-13.85,1.5-4,.367-6.885-.5-8.65-2.6-1.867-2.268-2.301-5.784-1.301-10.55l5.701-21.851c1.065-4.1 3.433-7.7 7.1-10.8 2.267-1.9 4.699-3.367 7.3-4.4 1.101-.434 2.233-.8 3.399-1.1 9.899-2.433 21.217-4.35 33.951-5.75 6.265-.832 9.731,1.718 10.398,7.652zm-79.7-8.45c2,.6 3.65,1.783 4.95,3.55 1.366,1.9 1.884,3.917 1.55,6.05-1.1,7.067-2.217,13.05-3.35,17.95-1.435,6.233-3.15,11.8-5.15,16.7-2.5,4.2-6.282,5.3-11.35,3.3-27.733-13.067-54.733-18.05-81-14.95-2.633.3-4.267-.2-4.9-1.5s-.233-3.383 1.2-6.25c4.867-9.6 11.267-18.732 19.2-27.399 1.466-1.601 3.183-2.783 5.15-3.551 1.833-.699 4.1-1.1 6.8-1.199 12.267-.533 23.6-.268 34,.8 11.368,1.166 22.333,3.332 32.9,6.499zm-19.198,159.699c3,1.134 5.299,2.649 6.898,4.551 .934,1.1 1.852,3.1 2.75,6-.898-2.9-1.816-4.9-2.75-6-1.601-1.901-3.898-3.417-6.898-4.551zm-36.102-9.25c6.833-1.8 12.667-.832 17.5,2.899 5.3,4.033 7.884,10.383 7.75,19.051-.167,10.968-2.934,20.232-8.3,27.8-4.733,6.733-10.583,11.051-17.55,12.95-6.767,1.866-12.55.949-17.35-2.75-5.233-4.032-7.833-10.45-7.8-19.25 .033-11.032 2.733-20.334 8.1-27.899 4.768-6.667 10.65-10.934 17.65-12.801zm-.95,3.801c3.767-1.033 7.534-.101 11.3,2.8 1.733,1.567 3.133,3.533 4.2,5.899 1.167,2.601 1.769,5.282 1.802,8.051 .032,8.565-2.25,16.533-6.852,23.899-2.367,3.732-5.417,6.582-9.15,8.55-3.867,2.032-7.717,2.7-11.55,2-1.966-.332-3.767-1.232-5.4-2.699s-3.017-3.584-4.15-6.351c-1.133-2.834-1.733-5.717-1.8-8.649-.067-4.5.617-8.733 2.05-12.7 1.2-3.333 3.083-6.833 5.65-10.5 3.833-5.367 8.468-8.8 13.9-10.3-5.433,1.5-10.066,4.934-13.9,10.3-2.566,3.667-4.45,7.167-5.65,10.5-1.433,3.967-2.117,8.2-2.05,12.7 .066,2.934.667,5.815 1.8,8.649 1.133,2.767 2.517,4.884 4.15,6.351s3.434,2.367 5.4,2.699c3.833.7 7.684.032 11.55-2 3.733-1.968 6.783-4.816 9.15-8.55 4.6-7.366 6.884-15.334 6.852-23.899-.033-2.769-.635-5.45-1.802-8.051-1.066-2.366-2.466-4.332-4.2-5.899-3.767-2.9-7.533-3.834-11.3-2.8zm13.651,14.75c-1.633-4.733-4.367-7.617-8.2-8.65-3.867-1.033-7.717.084-11.55,3.351-3.8,3.366-6.467,7.934-8,13.7s-1.5,11.033.1,15.8c1.633,4.801 4.383,7.717 8.25,8.75 3.833,1.032 7.667-.116 11.5-3.449 3.8-3.301 6.467-7.834 8-13.601s1.499-11.068-.1-15.901zm-170.75-77.6c1.933.434 3.15,2.283 3.65,5.55 .5,3.733.066,8.051-1.3,12.95-1.4,4.899-3.316,8.718-5.75,11.449-2.3,2.467-4.65,3.2-7.05,2.2-1-.567-1.733-1.567-2.2-3-.3-.866-.483-1.899-.55-3.101-.167-3.468.467-7.366 1.9-11.699 1.434-4.367 3.267-7.95 5.5-10.75h-.05c1.367-1.733 2.717-2.834 4.05-3.301 .599-.232 1.199-.331 1.8-.298zm92.399,54.699c-1.6,5.566-3.934,9.917-7,13.051-3.4,3.533-6.917,4.601-10.55,3.199-4.066-1.565-6.617-4.717-7.65-9.449-.967-4.2-.6-8.866 1.1-14 1.667-5.066 4.117-9.134 7.35-12.2 3.566-3.332 7.283-4.601 11.15-3.8 3.633.767 5.9,3.566 6.8,8.399 .833,4.333.433,9.267-1.2,14.8zm74.101,34.75c.5,1.4.517,2.935.05,4.601s-1.267,2.983-2.4,3.95c-1.167.968-2.333,1.3-3.5,1s-2-1.149-2.5-2.551c-.5-1.367-.517-2.899-.05-4.6 .467-1.667 1.284-2.983 2.45-3.95 1.167-.933 2.333-1.25 3.5-.95s1.982,1.133 2.45,2.5z" fill="#333"/>
 <path d="m428.998,115.149c6.769,5.067 10.968,11.983 12.602,20.75 .898,4.833 1,8.05.3,9.65-.698,1.699-2.85,3-6.448,3.899-9.201,2.333-17.052,3.601-23.552,3.8-2.198.066-3.8-.532-4.8-1.8-.898-1.2-1.634-3.5-2.2-6.899l-2.948-27.75c-.367-3-.084-5.134.85-6.4 .833-1.133 2.316-1.75 4.449-1.85 8.098-.4 15.348,1.801 21.747,6.6zm-11.948-10.349c-3.233-.667-6.718-1.083-10.45-1.25-2.934-.134-6.384-.134-10.352,0 .769.434 2.201,10.066 4.302,28.899 1.065,9.435 2.1,18.817 3.1,28.15 27.634-7.768 44.617-8.733 50.95-2.9l-1.05-8c-2.435-11.8-7.584-22.315-15.45-31.55-6.233-7.299-13.251-11.75-21.05-13.349zm-12.901,64.3 1.5-.4c1.101-.2 1.75.317 1.95,1.55 .2,1.2-.283,1.968-1.45,2.301-.666.199-1.3.383-1.899.55 .201,16.933-.684,35.065-2.649,54.399-.267,2.434-.8,4.5-1.601,6.199-.866,1.7-1.916,2.816-3.149,3.351 8.899-3.101 17.8-6.267 26.7-9.5 1.533-18.101 5.633-34.449 12.3-49.05 6.399-14 12.567-20.934 18.5-20.8-8.033-.367-16.866.317-26.5,2.05-6.667,1.233-14.601,3.167-23.8,5.801 .031,1.166.066,2.348.098,3.549zm-.5-8.5c.9.367 1.384,1.25 1.45,2.649 .033,1.268-.316,2.033-1.05,2.301m56.1,14.449c-1.267.733-2.5,1.684-3.698,2.851l6.6,1.6c4.166,1.067 6.75,5.268 7.75,12.601 .367,2.699.5,5.532.4,8.5l5.448,1.45c.2-11.167-1.383-19.2-4.75-24.101-3.133-4.568-7.05-5.534-11.75-2.901zm-5.55-22.3c7.866.633 13.768,5.383 17.7,14.25 1.065,2.4 1.948,5 2.649,7.8 3.133,1.7 5.149,3.018 6.049,3.95 1.168,1.133 1.734,2.583 1.701,4.351l-.85,10.899c-.134,2.4-.852,3.733-2.148,4-.168-1.467-1.084-2.75-2.75-3.85 0,2.533-.102,5.166-.302,7.899m-1.697-27.249c.133.601.266,1.233.398,1.9 1.898,1.067 3.3,2.15 4.2,3.25 .899,1.167 1.333,2.45 1.3,3.85l-1.148,14.2m-25.352-45.25h.25m-335.7,133.35c-4.8-2.267-9.333-4.684-13.6-7.25-5.967-3.601-11.65-7.916-17.05-12.949-5.633-5.269-8.433-9.051-8.4-11.351v-9.649c-.033-2.834.083-4.95.35-6.351 .267-1.532.816-3.066 1.65-4.601l1.4.45c-.933,2.199-1.483,4.449-1.65,6.75-.067.934.033,1.934.3,3 .3,1.199.733,2.231 1.3,3.1 1.3,2 3.617,4.435 6.95,7.301-1.4-1.934-2-6.084-1.8-12.45 .067-2.399.467-7.116 1.2-14.149-.767-1.366-1.217-3.167-1.35-5.399-.2-3.668.467-7.816 2-12.45 1.5-4.601 3.433-8.384 5.8-11.351 2.233-2.767 4.434-4.216 6.6-4.35v-.05c4.433-4.867 10.467-9.333 18.1-13.4 6.867-3.633 15.283-7.083 25.25-10.35 18.167-13.7 39.066-22.884 62.7-27.551 7.167-14.732 14.25-26.616 21.25-35.649 6.267-8.133 11.9-13.284 16.9-15.45 11.466-5 26.35-8.417 44.649-10.25 16.467-1.667 34.166-1.95 53.101-.85 17.8,1.032 34,3.133 48.6,6.3 14.834,3.2 25.302,6.899 31.4,11.1 9.366,6.435 16.633,14.65 21.8,24.65 3.467,6.7 5.866,13.982 7.2,21.85m21.8,31.949c1.033,4.8 1.566,10.183 1.602,16.15v1.3m-19.453-4.1c3-.767 5.385.384 7.15,3.45 1.967,3.334 2.667,8.217 2.1,14.65-.565,6.231-2.231,11.833-5,16.8-2.532,4.5-5.35,7.45-8.448,8.851-3.167,1.468-5.65.832-7.45-1.899-.634-.967-1.134-2.15-1.5-3.551-.768-3-.898-7-.398-12 .766-7.468 2.516-13.634 5.25-18.5 0-.066.016-.116.049-.149 2.431-4.335 5.181-6.884 8.247-7.652zm3.651,9.501c-.267-.934-.616-1.75-1.05-2.45-1.467-2.533-3.434-3.483-5.898-2.851-1.802.435-3.468,1.633-5,3.601m.75,5.099c-2.067,3.634-3.385,8.267-3.951,13.899-.566,5.434-.101,9.268 1.399,11.5 .9,1.334 2.019,1.983 3.351,1.95 .668,0 1.399-.184 2.201-.551 2.266-1.065 4.35-3.25 6.25-6.55 2.032-3.7 3.282-7.851 3.75-12.45 .398-4.8-.135-8.434-1.602-10.899l-.2-.3c-1.267-2.032-2.967-2.782-5.1-2.25-2.266.535-4.301,2.418-6.098,5.651zm8.75,6.951c.666-.167 1.198.1 1.6.8 .434.733.583,1.817.449,3.25-.133,1.399-.5,2.649-1.101,3.75-.565,1-1.198,1.649-1.899,1.95-.699.333-1.25.199-1.649-.4-.433-.666-.567-1.815-.399-3.449 .166-1.7.549-3.101 1.149-4.2 .565-.969 1.182-1.535 1.85-1.701zm12.5-9.301c-.201,4.566-.951,9.45-2.25,14.649-2.269,9-5.602,16.283-10,21.851-4.802,6.066-10.052,8.983-15.75,8.75-3.567.634-6.451,1.25-8.65,1.851-3.133.833-5.95,1.833-8.45,3l-150.602,74.35c-.1.033-.183.082-.25.149-4.666,3.7-9.833,6.366-15.5,8-3.167.899-6.25,1.483-9.25,1.75l-.35.05c-14.566,2.367-22.3,3.617-23.2,3.75-8.167,1.066-15.917,1.467-23.25,1.2-20.867-.767-39.667-4.783-56.4-12.05-15.167-6.601-25.3-14.2-30.4-22.801-2.733-4.601-3.966-8.416-3.7-11.449 .3-3.133 2.2-5.65 5.7-7.551m337.552-108.198c-3.334,3.2-6.4,8.1-9.201,14.7-3.832,9.066-6.482,19.983-7.949,32.75-.167,1.334-.633,2.399-1.4,3.2s-1.65,1.199-2.65,1.199h-7.7l-1.9.801c1.9,4.899 4.185,8.55 6.851,10.949 2.834,2.601 6.399,4.051 10.701,4.351m1.146-17.501c.102.134.184.268.25.399 1.5,2.233 3.55,2.75 6.148,1.551m-23.197-.55-4-7.149m-27.951-109.25c1.268,10.032 2.05,19.85 2.352,29.449 .266,3.634.032,6.083-.701,7.351-.967,1.667-3.366,2.966-7.199,3.899-13.1,3.134-25.934,5.533-38.5,7.2-4.667.601-9.283,1.101-13.85,1.5-4,.367-6.885-.5-8.65-2.6-1.867-2.268-2.301-5.784-1.301-10.55l5.701-21.851c1.065-4.1 3.433-7.7 7.1-10.8 2.267-1.9 4.699-3.367 7.3-4.4 1.101-.434 2.233-.8 3.399-1.1 9.899-2.433 21.217-4.35 33.951-5.75 6.265-.832 9.731,1.718 10.398,7.652zm-305.45,141.2c4.934,4.199 9.983,7.832 15.15,10.899 13.933,8.233 29.566,14.667 46.9,19.3 .7-8.8 2.017-16.55 3.95-23.25 2.2-7.5 5.333-14.3 9.4-20.399 7.033-10.566 17.033-19.783 30-27.649 11.333-6.899 23.55-11.45 36.65-13.649 13.033-2.168 25.833-1.834 38.4,1 7,1.566 13.833,4.949 20.5,10.149 6.833,5.366 12.816,12.134 17.95,20.3 2.698,4.301 5.25,10.783 7.649,19.45 .566,1.967 1.166,4.25 1.799,6.851l6.802-2.101c-1.9.533-3.5.017-4.802-1.55-1.398-1.633-2.133-3.967-2.198-7 .267-22.667-.167-45.601-1.302-68.8-23.698,5.732-40.633,9.816-50.798,12.25-17.533,4.232-26.417,5.95-26.65,5.149-.333-1.167 8.45-4.315 26.35-9.45 15.601-4.467 32.533-8.883 50.802-13.25l12-46.35c1.065-5.067 3.815-9.617 8.25-13.65 4.565-4.167 10-6.866 16.299-8.1 9.634-1.933 16.451-3.217 20.451-3.85 8-1.301 15.383-2.051 22.148-2.25 .134-.033.268-.033.398,0m8.001,69.55c-3.766,1-6.565,1.55-8.398,1.649-3.033.167-5.033-.55-6-2.149l14.3-3.5m-88.251-59.25c-10.565-3.167-21.532-5.333-32.899-6.5-10.399-1.067-21.733-1.333-34-.8-2.7.1-4.967.5-6.8,1.199-1.967.768-3.684,1.95-5.15,3.551-7.934,8.667-14.333,17.8-19.2,27.399-1.433,2.867-1.833,4.95-1.2,6.25s2.267,1.8 4.9,1.5c26.267-3.1 53.267,1.883 81,14.95 5.065,2 8.85.9 11.35-3.3 2-4.9 3.718-10.467 5.15-16.7 1.133-4.9 2.25-10.883 3.35-17.95 .334-2.133-.184-4.149-1.55-6.05-1.3-1.766-2.951-2.95-4.951-3.549zm-28.651,53.899c-1.766-1.8-5.299-3.566-10.6-5.3-14.033-4.565-28.2-5.466-42.5-2.7-18.5,3.533-35.7,9.75-51.6,18.65-14.733,8.267-26.534,17.767-35.4,28.5-7.233,8.767-13.033,18.25-17.4,28.45-3.633,8.399-6.4,17.633-8.3,27.699-.633,3.399.45,5.384 3.25,5.95 2.9.601 5.667-1.084 8.3-5.051 7.167-10.867 13.617-19.731 19.35-26.6 9.2-11 18.633-19.7 28.3-26.101 17.1-11.334 32.534-19.801 46.3-25.399 16.8-6.867 36.117-11.75 57.95-14.65 3.402-.465 4.184-1.615 2.35-3.448zm116.401-3.149c-28.698,6.167-57.684,11.883-86.948,17.149 .933.033 1.467.851 1.6,2.45s-.301,2.55-1.301,2.851c28.967-5.301 57.983-11.134 87.051-17.5m-195.402-17.551c24-1.232 47.15,1.066 69.45,6.9 10.566,2.767 18.602,5.933 24.102,9.5 5.967,3.9 8.315,7.883 7.049,11.95-33.232,6.232-62.149,14.867-86.75,25.899-13.533,6.066-25.417,12.783-35.65,20.149-7.467,5.366-14.45,12.366-20.95,21-3.6,4.8-8.167,11.399-13.7,19.8-4.6,6.301-8.95,10.133-13.05,11.5-5.133,1.7-11.4.367-18.8-4-4.2-2.5-7.35-7.133-9.45-13.899-2.2-7.166-2.683-15.134-1.45-23.899 1.367-9.933 4.816-19.533 10.35-28.8 6.367-10.667 15.083-20.185 26.15-28.55m105.649,64c3.067-2.767 6.133-4.851 9.2-6.25 5.066-2.3 9.55-3.482 13.45-3.55 4.333-.101 9.234,1.082 14.702,3.55 6.299,2.866 10.731,8.149 13.299,15.851 2.033,6.167 3.301,15.667 3.801,28.5 .033.899.133,1.717.3,2.45 .134.731.3,1.283.5,1.649 .767,1.699 2.033,2.649 3.8,2.851 2.934.3 6.768-1.45 11.5-5.25-1.333-6.601-2.55-12.217-3.65-16.851m-66.902-22.95c2.833-.934 5.733-1.416 8.7-1.449 3.133,0 6.55.5 10.25,1.5 5.934,1.6 11.583,4.815 16.948,9.649 4.602,4.134 7.668,10.899 9.201,20.3 3,1.134 5.299,2.649 6.899,4.551 .933,1.1 1.851,3.1 2.75,6m-45.748-19.801c6.833-1.8 12.667-.832 17.5,2.899 5.3,4.033 7.884,10.383 7.75,19.051-.167,10.968-2.934,20.232-8.3,27.8-4.733,6.733-10.583,11.051-17.55,12.95-6.767,1.866-12.55.949-17.35-2.75-5.233-4.032-7.833-10.45-7.8-19.25 .033-11.032 2.733-20.334 8.1-27.899 4.768-6.667 10.65-10.934 17.65-12.801zm-.95,3.801c3.767-1.033 7.534-.101 11.3,2.8 1.733,1.567 3.133,3.533 4.2,5.899 1.167,2.601 1.769,5.282 1.802,8.051 .032,8.565-2.25,16.533-6.852,23.899-2.367,3.732-5.417,6.582-9.15,8.55-3.867,2.032-7.717,2.7-11.55,2-1.966-.332-3.767-1.232-5.4-2.699s-3.017-3.584-4.15-6.351c-1.133-2.834-1.733-5.717-1.8-8.649-.067-4.5.617-8.733 2.05-12.7 1.2-3.333 3.083-6.833 5.65-10.5 3.833-5.367 8.468-8.8 13.9-10.3zm13.651,14.75c1.6,4.833 1.633,10.133.1,15.899s-4.2,10.3-8,13.601c-3.833,3.333-7.667,4.481-11.5,3.449-3.867-1.033-6.617-3.949-8.25-8.75-1.6-4.767-1.633-10.033-.1-15.8s4.2-10.334 8-13.7c3.833-3.267 7.683-4.384 11.55-3.351 3.832,1.034 6.566,3.918 8.2,8.652zm52-18.451 .5-.101c17.731-5.267 40.948-12.866 69.649-22.8 .434-.134.851-.268 1.25-.399 .033-.033.066-.051.101-.051h.05m-235.101-68.998c-15.2,9-28.033,20.684-38.5,35.05-4.367,6-7.583,12.967-9.65,20.899-1.967,7.533-2.783,15.482-2.45,23.851 .267,6.3 1.45,10.017 3.55,11.149s3.583-1.066 4.45-6.601c1.2-7.634 3.15-15.067 5.85-22.3 2.833-7.667 6.317-14.551 10.45-20.65 5.167-7.565 10.333-13.899 15.5-19 5.767-5.7 12.5-10.85 20.2-15.45 8.434-5.032 16.267-9.133 23.5-12.3 9.733-4.3 19.667-7.565 29.8-9.8 .967-.233.933-.567-.1-1-1.067-.433-2.733-.767-5-1-6.233-.667-12.6-.167-19.1,1.5-14.167,3.634-27,8.851-38.5,15.652zm66-16.101c-.967-.2-1.45-.45-1.45-.75s.483-.55 1.45-.75c1-.2 2.2-.3 3.6-.3s2.583.1 3.55.3c1,.2 1.5.45 1.5.75s-.5.55-1.5.75c-.966.2-2.15.3-3.55.3s-2.6-.1-3.6-.3zm-125.199,49.301c1.933.434 3.15,2.283 3.65,5.55 .5,3.733.066,8.051-1.3,12.95-1.4,4.899-3.316,8.718-5.75,11.449-2.3,2.467-4.65,3.2-7.05,2.2-1-.567-1.733-1.567-2.2-3-.3-.866-.483-1.899-.55-3.101-.167-3.468.467-7.366 1.9-11.699 1.434-4.367 3.267-7.95 5.5-10.75h-.05c1.367-1.733 2.717-2.834 4.05-3.301 .599-.232 1.199-.331 1.8-.298zm-13,31.649c.633,1.101 1.483,1.899 2.55,2.399 3.233,1.5 6.35.616 9.35-2.649 2.633-2.899 4.7-6.983 6.2-12.25 1.467-5.2 1.917-9.8 1.35-13.8-.633-4.435-2.417-6.851-5.35-7.25-.367-.034-.716-.034-1.05,0m88.499,30.901c5,1.232 8.033,4.816 9.1,10.75 .933,4.732.517,10.134-1.25,16.199-1.767,6.101-4.35,10.867-7.75,14.301-4.4,4.566-8.983,5.866-13.75,3.899-5.067-1.899-8.233-5.75-9.5-11.55v-.051c-1.133-4.666-.75-9.866 1.15-15.601v.051c1.833-5.601 4.55-10.084 8.15-13.45v-.05c4.4-4.101 9-5.616 13.8-4.551l.05.053zm3.85,25.699c-1.6,5.566-3.934,9.917-7,13.051-3.4,3.533-6.917,4.601-10.55,3.199-4.066-1.565-6.617-4.717-7.65-9.449-.967-4.2-.6-8.866 1.1-14 1.667-5.066 4.117-9.134 7.35-12.2 3.566-3.332 7.283-4.601 11.15-3.8 3.633.767 5.9,3.566 6.8,8.399 .833,4.333.433,9.267-1.2,14.8zm14.95,43.051c1.133-.634 2.25-1.399 3.35-2.301 4.267-3.5 7.917-8.649 10.95-15.449 5.3-11.967 11.017-22.084 17.15-30.351 3.433-4.601 6.85-8.384 10.25-11.351m-1.45,100.401c-4.3.334-8.45-.017-12.45-1.05-7.133-1.833-13.15-5.683-18.05-11.55-3.5-4.2-6.05-8.816-7.65-13.851-1.3-4.268-2-9.101-2.1-14.5-3,1.666-6.066,2.384-9.2,2.149 .1.933.15,2.033.15,3.3-.033,2.601-.317,4.483-.85,5.65-.533,1.231-1.367,1.815-2.5,1.75-13.333-.733-28.25-3.483-44.75-8.25-12.467-3.566-23.75-7.75-33.85-12.551m33.3-1.347c14,3.7 29.1,6.233 45.3,7.601 .934.066 1.633.366 2.1.899 .533.601.9,1.584 1.1,2.95m96.002-31.6c1.398,8.834 1.133,17.467-.802,25.899-2.1,9.066-5.532,16.967-10.3,23.7-1.134,1.567-2.333,3.083-3.602,4.55-1,1.133-2.032,2.217-3.1,3.25-1.1,1.066-2.232,2.084-3.4,3.051m-6.447-39.3c.5,1.4.517,2.935.05,4.601s-1.267,2.983-2.4,3.95c-1.167.968-2.333,1.3-3.5,1s-2-1.149-2.5-2.551c-.5-1.367-.517-2.899-.05-4.6 .467-1.667 1.284-2.983 2.45-3.95 1.167-.933 2.333-1.25 3.5-.95s1.982,1.133 2.45,2.5zm156.599-55.199-103.5,43.85" fill="none" stroke="#333" stroke-linecap="round" stroke-linejoin="round" stroke-miterlimit="3"/>
</svg>
